<svg class="user-avatar" version="1.1" xmlns="http://www.w3.org/2000/svg" xmlns:xlink="http://www.w3.org/1999/xlink" x="0px" y="0px" width="64" height="64" viewBox="0, 0, 1249, 1249">
  <g id="Layer 2">
    <path d="M612.891,790.536 C606.806,805.603 565.052,802.341 550.711,803.935 C515.713,807.824 480.176,807.935 444.711,807.935 C436.846,807.935 430.404,808.836 422.711,809.935 C396.029,813.747 363.04,809.226 336.711,805.935 C332.08,805.356 327.314,806.702 322.711,805.935 C316.549,804.908 310.873,800.962 304.711,799.935 C302.738,799.606 300.608,800.567 298.711,799.935 C296.431,799.175 294.861,797.01 292.711,795.935 C274.334,786.746 273.1,789.202 258.711,771.935 C255.617,768.222 250.366,764.901 248.711,759.935 C248.078,758.038 249.04,755.908 248.711,753.935 C248.018,749.776 245.404,746.094 244.711,741.935 C243.049,731.961 242.711,722.22 242.711,711.935 C242.711,703.172 242.483,674.617 244.711,667.935 C245.471,665.655 247.636,664.085 248.711,661.935 C257.258,644.841 245.1,666.767 250.711,649.935 C253.101,642.766 258.751,637.875 262.711,631.935 C270.612,620.083 278.226,602.905 284.711,589.935 C287.911,583.535 293.511,578.335 296.711,571.935 C301.428,562.5 311.095,544.358 316.711,535.935 C325.219,523.173 338.167,512.751 346.711,499.935 C347.88,498.181 347.542,495.689 348.711,493.935 C356.68,481.981 366.042,471.273 372.711,457.935 C379.37,444.616 382.436,428.347 390.711,415.935 C392.28,413.581 395.142,412.288 396.711,409.935 C400.446,404.332 402.104,397.463 406.711,391.935 C424.231,370.911 449.13,353.515 468.711,333.935 C479.414,323.232 488.967,309.627 498.711,297.935 C503.083,292.688 504.809,284.812 508.711,279.935 C510.213,278.058 513.209,277.812 514.711,275.935 C519.659,269.75 519.062,264.309 526.711,257.935 C532.185,253.373 547.008,249.638 550.711,245.935 C552.894,243.752 566.262,214.833 568.711,209.935 C572.925,201.506 580.309,194.337 586.711,187.935 C588.411,186.235 591.209,185.812 592.711,183.935 C595.803,180.07 597.247,168.121 602.711,165.935 C607.897,163.86 622.504,173.13 626.711,175.935 C636.015,182.138 652.87,196.094 660.711,203.935 C668.349,211.573 699.323,257.772 702.711,267.935 C706.123,278.17 708.783,290.007 716.711,297.935 C720.11,301.334 725.312,302.536 728.711,305.935 C733.711,310.935 737.711,316.935 742.711,321.935 C750.989,330.213 763.7,334.426 772.711,341.935 C778.813,347.02 783.309,352.533 788.711,357.935 C792.11,361.334 797.312,362.536 800.711,365.935 C812.553,377.777 819.956,395.029 830.711,407.935 C834.021,411.907 844.35,420.983 846.711,423.935 C859.724,440.201 835.851,419.075 852.711,435.935 C865.004,448.228 877.32,462.266 888.711,475.935 C898.167,487.282 904.209,501.433 914.711,511.935 C916.411,513.635 919.011,514.235 920.711,515.935 C922.411,517.635 922.834,520.433 924.711,521.935 C926.357,523.252 929.065,522.618 930.711,523.935 C932.588,525.436 933.011,528.235 934.711,529.935 C946.085,541.309 970.953,560.763 984.711,569.935 C990.943,574.09 1017.854,589.078 1020.711,591.935 C1022.411,593.635 1023.011,596.235 1024.711,597.935 C1036.362,609.586 1055.094,619.083 1060.711,635.935 C1069.417,662.052 1055.284,716.495 1050.711,743.935 C1048.122,759.469 1039.479,772.4 1032.711,785.935 C1024.688,801.981 1012.708,811.937 996.711,819.935 C983.305,826.638 918.317,824.164 902.711,821.935 C895.125,820.851 888.315,816.885 880.711,815.935 C855.476,812.781 829.998,811.096 804.711,807.935 C784.087,805.357 763.26,804.871 742.711,801.935 C732.258,800.442 721.164,803.428 710.711,801.935 C697.71,800.078 685.554,794.075 672.711,791.935 C660.925,789.971 648.51,791.901 636.711,789.935 C623.847,787.791 613.008,793.935 600.711,793.935" fill="#616D86"/>
    <path d="M636.711,789.935 C461.455,699.524 385.297,680.154 385.297,669.869 C249.471,659.655 436.222,626.249 437.297,624.099 C445.844,607.005 359.686,618.931 365.297,602.099 C270.612,620.083 426.812,559.069 433.297,546.099 C436.497,539.699 438.097,486.499 441.297,480.099 C392.28,413.581 547.728,400.452 549.297,398.099 C553.032,392.496 508.69,367.627 513.297,362.099 C562.771,281.537 547.008,249.638 550.711,245.935 C552.894,243.752 566.262,214.833 568.711,209.935 C572.925,201.506 580.309,194.337 586.711,187.935 C588.411,186.235 591.209,185.812 592.711,183.935 C595.803,180.07 597.247,168.121 602.711,165.935 C607.897,163.86 622.504,173.13 626.711,175.935 C636.015,182.138 652.87,196.094 660.711,203.935 C668.349,211.573 699.323,257.772 702.711,267.935 C706.123,278.17 708.783,290.007 716.711,297.935 C720.11,301.334 725.312,302.536 728.711,305.935 C733.711,310.935 737.711,316.935 742.711,321.935 C750.989,330.213 763.7,334.426 772.711,341.935 C778.813,347.02 783.309,352.533 788.711,357.935 C792.11,361.334 797.312,362.536 800.711,365.935 C812.553,377.777 819.956,395.029 830.711,407.935 C834.021,411.907 844.35,420.983 846.711,423.935 C859.724,440.201 835.851,419.075 852.711,435.935 C865.004,448.228 877.32,462.266 888.711,475.935 C898.167,487.282 904.209,501.433 914.711,511.935 C916.411,513.635 919.011,514.235 920.711,515.935 C922.411,517.635 922.834,520.433 924.711,521.935 C926.357,523.252 929.065,522.618 930.711,523.935 C932.588,525.436 933.011,528.235 934.711,529.935 C946.085,541.309 970.953,560.763 984.711,569.935 C990.943,574.09 1017.854,589.078 1020.711,591.935 C1022.411,593.635 1023.011,596.235 1024.711,597.935 C1036.362,609.586 1055.094,619.083 1060.711,635.935 C1069.417,662.052 1055.284,716.495 1050.711,743.935 C1048.122,759.469 1039.479,772.4 1032.711,785.935 C1024.688,801.981 1012.708,811.937 996.711,819.935 C983.305,826.638 918.317,824.164 902.711,821.935 C895.125,820.851 888.315,816.885 880.711,815.935 C855.476,812.781 829.998,811.096 804.711,807.935 C784.087,805.357 763.26,804.871 742.711,801.935 C732.258,800.442 721.164,803.428 710.711,801.935 C697.71,800.078 685.554,794.075 672.711,791.935 C660.925,789.971 648.51,791.901 636.711,789.935" fill="#7788A4"/>
    <path d="M642.48,1073.953 C393.448,1073.953 191.566,979.594 191.566,863.195 C191.566,746.797 393.448,652.438 642.48,652.438 C891.513,652.438 1093.394,746.797 1093.394,863.195 C1093.394,979.594 891.513,1073.953 642.48,1073.953 z" fill="#3E7E98"/>
    <path d="M638.48,1063.621 C397.755,1063.621 202.609,975.231 202.609,866.195 C202.609,757.16 397.755,668.77 638.48,668.77 C879.205,668.77 1074.351,757.16 1074.351,866.195 C1074.351,975.231 879.205,1063.621 638.48,1063.621 z" fill="#2B97D9"/>
  </g>
  <g id="Layer 3">
    <path d="M973.867,593.642 C975.078,591.949 978.16,590.537 977.5,588.564 C976.163,584.565 969.271,586.449 965.5,584.564 C952.801,578.214 941.172,566.236 931.5,556.564 C914.64,539.704 938.513,560.83 925.5,544.564 C923.998,542.687 921.2,542.263 919.5,540.564 C916.101,537.164 914.899,531.963 911.5,528.564 C906.534,523.597 897.854,520.006 893.5,514.564 C892.183,512.917 892.991,510.054 891.5,508.564 C890.009,507.073 887.146,507.881 885.5,506.564 C877.968,500.538 874.253,489.316 867.5,482.564 C866.141,481.204 854.366,469.646 853.5,468.564 C849.621,463.715 847.379,455.412 843.5,450.564 C841.998,448.687 839.002,448.441 837.5,446.564 C837.115,446.082 827.886,431.045 827.5,430.564 C825.998,428.687 823.002,428.441 821.5,426.564 C820.183,424.917 820.443,422.449 819.5,420.564 C814.083,409.729 795.713,380.777 787.5,372.564 C784.101,369.164 778.899,367.963 775.5,364.564 C773.8,362.864 773.377,360.065 771.5,358.564 C769.854,357.247 767.146,357.881 765.5,356.564 C763.623,355.062 763.2,352.263 761.5,350.564 C758.101,347.164 752.899,345.963 749.5,342.564 C747.8,340.864 747.2,338.263 745.5,336.564 C738.833,329.897 730.167,325.23 723.5,318.564 C718.5,313.564 716.5,305.564 711.5,300.564 C709.8,298.864 707.2,298.263 705.5,296.564 C694.122,285.186 688.293,267.753 679.5,254.564 C673.709,245.877 666.587,239.651 659.5,232.564 C645.589,218.652 645.991,208.224 625.5,194.564 C623.5,193.23 602.723,179.981 600.391,180.564 C595.215,181.857 564.281,256.766 565.025,259 C573.346,283.961 589.551,271 615.551,267 C625.304,265.5 632.972,265.161 629.025,277 C625.904,286.363 558.544,287.898 569.025,301 C578.103,312.347 555.182,326.46 581.025,343 C631.025,375 661.025,385 687.025,409 C691.098,412.759 697.025,421.524 697.025,427 C697.025,434.3 597.916,407 579.025,483 C639.265,466.858 726.848,441.356 669.025,557 C659.025,577 697.025,583 705.025,633.386 C729.025,589 769.025,615 801.025,651 C825.16,678.152 760.632,534.963 765.025,536.915 C783.025,544.915 797.052,553.627 799.025,555 C819.025,568.915 821.025,583 809.025,603 C800.753,616.787 827.808,590.565 835.025,605 C842.779,620.508 807.998,618.305 813.025,633.386 C813.487,634.771 917.502,695.604 917.025,695 C887.025,657 872.315,569.453 871.5,564.564 C870.536,558.779 869.479,549.9 877.5,548.564 C887.678,546.867 904.86,562.244 913.5,566.564 C930.984,575.305 951.025,577.58 967.5,588.564" fill="#BECEE9"/>
    <path d="M971.867,593.642 C973.078,591.949 976.16,590.537 975.5,588.564 C974.163,584.565 967.271,586.449 963.5,584.564 C950.801,578.214 939.172,566.236 929.5,556.564 C912.64,539.704 936.513,560.83 923.5,544.564 C921.998,542.687 919.2,542.263 917.5,540.564 C914.101,537.164 912.899,531.963 909.5,528.564 C904.534,523.597 895.854,520.006 891.5,514.564 C890.183,512.917 890.991,510.054 889.5,508.564 C888.009,507.073 885.146,507.881 883.5,506.564 C875.968,500.538 872.253,489.316 865.5,482.564 C864.141,481.204 852.366,469.646 851.5,468.564 C847.621,463.715 845.379,455.412 841.5,450.564 C839.998,448.687 837.002,448.441 835.5,446.564 C835.115,446.082 825.886,431.045 825.5,430.564 C823.998,428.687 821.002,428.441 819.5,426.564 C818.183,424.917 818.443,422.449 817.5,420.564 C812.083,409.729 793.713,380.777 785.5,372.564 C782.101,369.164 776.899,367.963 773.5,364.564 C771.8,362.864 771.377,360.065 769.5,358.564 C767.854,357.247 765.146,357.881 763.5,356.564 C761.623,355.062 761.2,352.263 759.5,350.564 C756.101,347.164 750.899,345.963 747.5,342.564 C745.8,340.864 745.2,338.263 743.5,336.564 C736.833,329.897 728.167,325.23 721.5,318.564 C716.5,313.564 714.5,305.564 709.5,300.564 C707.8,298.864 705.2,298.263 703.5,296.564 C692.122,285.186 686.293,267.753 677.5,254.564 C671.709,245.877 664.587,239.651 657.5,232.564 C643.589,218.652 643.991,208.224 623.5,194.564 C621.5,193.23 600.723,179.981 598.391,180.564 C593.215,181.857 597.646,216.33 598.391,218.564 C606.711,243.524 611.5,254.564 637.5,250.564 C647.253,249.063 649.446,264.724 645.5,276.564 C642.379,285.926 623.018,283.461 633.5,296.564 C642.577,307.91 604.773,326.311 615.025,336.564 C640.608,362.146 709.153,370.481 715.5,408.564 C716.411,414.03 723.5,423.087 723.5,428.564 C723.5,435.863 709.5,452.564 679.5,452.564 C725.5,490.564 681.5,566.564 711.5,566.564 C738.615,566.564 733.603,473.931 735.5,474.564 C740.061,476.084 755.107,490.611 759.5,492.564 C777.5,500.564 791.527,521.191 793.5,522.564 C813.5,536.479 825.422,544.446 829.5,550.564 C838.418,563.941 844.283,574.129 851.5,588.564 C859.254,604.072 846.473,617.482 851.5,632.564 C851.962,633.948 871.423,633.329 871.5,632.564 C873.5,612.564 870.315,569.453 869.5,564.564 C868.536,558.779 867.479,549.9 875.5,548.564 C885.678,546.867 902.86,562.244 911.5,566.564 C928.984,575.305 949.025,577.58 965.5,588.564" fill="#DAE8FE"/>
    <path d="M469.391,531.126 C482.307,524.383 491.639,510.878 501.391,501.126 C503.09,499.426 505.889,499.003 507.391,497.126 C508.708,495.48 508.074,492.772 509.391,491.126 C510.892,489.249 513.691,488.826 515.391,487.126 C518.79,483.727 519.991,478.525 523.391,475.126 C526.79,471.727 531.697,470.204 535.391,467.126 C537.563,465.315 538.562,461.126 541.391,461.126 C543.794,461.126 544.316,464.976 545.391,467.126 C547.276,470.897 547.505,475.355 549.391,479.126 C557.391,495.126 548.724,475.793 559.391,489.126 C560.684,490.743 567.793,503.528 571.391,507.126 C578.267,514.002 585.738,520.749 593.391,527.126 C595.237,528.665 599.391,534.075 599.391,536.479 C599.391,546.509 569.778,547.656 566.5,546.564 C557.874,543.688 548.552,532.668 544.5,524.564 C543.45,522.463 530.996,503.527 529.391,503.126 C527.099,502.553 527.067,516.091 526.5,516.564 C508.822,531.295 510.151,544.564 486.5,544.564" fill="#DAE8FE"/>
    <path d="M973.867,596.078 C975.078,594.385 978.16,592.974 977.5,591 C976.163,587.001 969.271,588.886 965.5,587 C952.801,580.651 941.172,568.672 931.5,559 C914.64,542.14 938.513,563.266 925.5,547 C923.998,545.123 921.2,544.7 919.5,543 C916.101,539.601 914.899,534.399 911.5,531 C906.534,526.034 897.854,522.442 893.5,517 C892.183,515.354 892.991,512.491 891.5,511 C890.009,509.509 887.146,510.317 885.5,509 C877.968,502.974 874.253,491.753 867.5,485 C866.141,483.641 854.366,472.082 853.5,471 C849.621,466.151 847.379,457.849 843.5,453 C841.998,451.123 839.002,450.877 837.5,449 C837.115,448.518 827.886,433.482 827.5,433 C825.998,431.123 823.002,430.877 821.5,429 C820.183,427.354 820.443,424.886 819.5,423 C814.083,412.165 795.713,383.213 787.5,375 C784.101,371.601 778.899,370.399 775.5,367 C773.8,365.3 773.377,362.502 771.5,361 C769.854,359.683 767.146,360.317 765.5,359 C763.623,357.498 763.2,354.7 761.5,353 C758.101,349.601 752.899,348.399 749.5,345 C747.8,343.3 747.2,340.7 745.5,339 C738.833,332.333 730.167,327.667 723.5,321 C718.5,316 716.5,308 711.5,303 C709.8,301.3 707.2,300.7 705.5,299 C694.122,287.622 688.293,270.19 679.5,257 C673.709,248.313 666.587,242.087 659.5,235 C645.589,221.089 645.991,210.661 625.5,197 C623.5,195.667 621.832,192.417 619.5,193 C614.325,194.294 618.756,208.766 619.5,211 C627.82,235.961 637.271,232.771 651.5,247 C658.477,253.977 671.446,269.161 667.5,281 C664.379,290.363 645.018,295.898 655.5,309 C664.577,320.347 681.247,322.747 691.5,333 C717.082,358.582 731.153,368.918 737.5,407 C738.411,412.467 741.5,419.524 741.5,425 C741.5,432.3 731.988,440.07 731.5,443 C731.105,445.371 733.439,447.763 735.5,449 C737.215,450.029 739.603,448.368 741.5,449 C746.061,450.52 749.2,454.85 753.5,457 C768.788,464.644 789.082,472.582 801.5,485 C803.2,486.7 803.623,489.498 805.5,491 C807.146,492.317 809.854,491.683 811.5,493 C813.377,494.502 813.8,497.3 815.5,499 C817.2,500.7 819.998,501.123 821.5,503 C822.817,504.646 822.183,507.354 823.5,509 C825.002,510.877 827.5,511.667 829.5,513 C830.833,515 832.167,517 833.5,519 C837.712,525.318 843.422,530.882 847.5,537 C856.419,550.378 856.283,570.565 863.5,585 C871.254,600.508 864.473,581.919 869.5,597 C869.962,598.385 874.731,615 875.5,615 C886.433,615 872.315,571.889 871.5,567 C870.536,561.216 869.479,552.337 877.5,551 C887.678,549.304 904.86,564.68 913.5,569 C930.984,577.742 951.025,580.017 967.5,591" fill="#FFFFFF"/>
    <path d="M470.711,529.07 C483.627,522.327 491.639,511.314 501.391,501.562 C503.09,499.863 505.889,499.439 507.391,497.562 C508.708,495.916 508.074,493.209 509.391,491.562 C510.892,489.686 513.691,489.262 515.391,487.562 C518.79,484.163 519.991,478.962 523.391,475.562 C526.79,472.163 531.697,470.64 535.391,467.562 C537.563,465.752 538.562,461.562 541.391,461.562 C543.794,461.562 544.316,465.413 545.391,467.562 C547.276,471.334 547.505,475.791 549.391,479.562 C557.391,495.562 548.724,476.229 559.391,489.562 C560.684,491.179 567.793,503.965 571.391,507.562 C578.267,514.439 585.738,521.186 593.391,527.562 C595.237,529.101 599.391,529.159 599.391,531.562 C599.391,541.593 578.669,534.655 575.391,533.562 C566.765,530.687 553.443,519.667 549.391,511.562 C548.34,509.462 542.996,493.964 541.391,493.562 C539.099,492.99 529.958,503.09 529.391,503.562 C511.712,518.294 493.042,531.562 469.391,531.562" fill="#FFFFFF"/>
    <path d="M343.32,726.383 C342.38,727.922 339.876,729.308 340.5,731 C340.651,731.409 368.383,747.589 370.5,749 C378.704,754.469 385.355,762.427 394.5,767 C403.833,771.667 415.167,772.333 424.5,777 C434.395,781.948 444.715,786.107 454.5,791 C482.749,805.125 510.239,820.87 538.5,835 C548.915,840.207 558.085,847.793 568.5,853 C572.271,854.886 576.729,855.114 580.5,857 C587.204,860.352 612.132,875.544 616.5,877 C634.513,883.004 656.071,864.215 670.5,857 C686.11,849.195 709.62,842.44 724.5,835 C728.8,832.85 732.2,829.15 736.5,827 C744.224,823.138 752.784,820.858 760.5,817 C764.8,814.85 768.2,811.15 772.5,809 C786.357,802.072 800.643,795.928 814.5,789 C830.763,780.869 887.005,746.495 898.5,735 C899.828,733.672 912.658,719.789 912.5,719 C911.536,714.178 897.563,711.45 894.5,709 C892.623,707.498 892.377,704.502 890.5,703 C877.84,692.872 840.964,687.744 824.5,685 C806.987,682.081 794.013,680.092 776.5,677.174 C764.631,675.195 756.646,668.77 744.5,668.77 C728.767,668.77 705.935,671.342 690.5,668.77 C679.224,666.89 661.955,668.77 650.5,668.77 C625.385,668.77 549.778,671.787 530.5,675 C524.446,676.009 518.542,677.993 512.5,679 C502.23,680.712 494.77,675.462 484.5,677.174 C474.22,689.76 471.671,676.413 469.391,677.174 C467.493,677.806 454.473,686.671 452.5,687 C440.176,689.054 440.824,692.95 428.5,695.004 C412.403,697.687 396.6,706.287 380.5,708.97 C369.581,710.79 360.658,719.614 350.5,723" fill="#A1A7C7"/>
    <path d="M827.484,690.664 C807.612,696.561 787.293,705.604 768.5,715 C766.543,715.978 752.933,727.433 750.5,725 C746.59,721.09 758.351,715.186 758.5,715 C762.72,709.725 761.173,702.327 766.5,697 C768.2,695.3 772.5,695.404 772.5,693 C772.5,689.241 751.58,683.513 748.5,683 C735.607,680.851 734.875,698.187 728.5,695 C724.5,693 725.662,686.162 722.5,683 C712.005,672.505 698.544,678.993 686.5,681 C684.527,681.329 682.1,679.8 680.5,681 C677.127,683.53 677.193,688.841 676.5,693 C675.172,700.966 672.826,710.861 680.5,717 C682.146,718.317 685.009,717.509 686.5,719 C697.433,729.933 678.011,738.496 670.5,741 C650.447,747.684 637.388,755.963 616.5,749 C611.444,747.315 588.583,735.497 590.5,747 C594.811,772.869 651.483,765 670.5,765 C673.039,765 694.5,761.37 694.5,763 C694.5,766.509 679.024,771.738 676.5,773 C666.376,778.062 658.21,785.048 646.5,787 C634.439,789.01 608.346,789.123 598.5,797 C596.623,798.502 596.2,801.3 594.5,803 C590,807.5 585.868,805.103 588.5,813 C591.032,820.597 598.931,821.861 602.5,829 C606.813,837.626 605.91,843.82 610.5,853 C613.091,858.181 614.944,866.554 618.5,871 C621.82,875.15 625.711,875.798 630.5,875 C631.927,874.762 675.69,858.405 678.5,857 C695.238,848.631 713.453,838.174 732.5,835 C742.293,833.368 760.333,831.534 768.5,825 C771.827,822.338 779.173,813.662 782.5,811 C787.011,807.391 822.96,788.77 830.5,785 C850.516,774.992 872.794,769.755 890.5,755 C893.997,752.086 912.321,718.641 910.5,715 C909.557,713.114 906.386,713.943 904.5,713 C902.35,711.925 900.5,710.333 898.5,709 C891.024,704.016 870.532,692.339 862.5,691 C854.716,689.703 846.284,692.297 838.5,691 C832.019,689.92 827.266,691 820.5,691" fill="#CAEFFC"/>
    <path d="M601.977,717.453 C590.659,717.821 576.097,724.602 566.5,731 C557.835,736.777 549.087,751.236 538.5,753 C535.124,753.563 511.875,732.125 502.5,729 C499.784,728.095 472.5,715.618 472.5,715 C472.5,710.757 494.653,714.384 496.5,715 C497.88,715.46 522.716,729.108 526.5,731 C538.359,736.929 545.835,739.665 556.5,729 C558.2,727.3 558.623,724.502 560.5,723 C568.235,716.812 587.131,715 596.5,715" fill="#CAEFFC"/>
  </g>
  <g id="Layer 4">
    <path d="M391.875,791.531 C388.084,797.164 383.853,789.497 380.25,790.938 C373.139,793.782 376.694,800.093 380.25,802.938 C383.224,805.317 398.086,808.119 396.25,798.938 C395.779,796.581 392.25,796.271 390.25,794.938 C388.25,793.604 386.25,792.271 384.25,790.938" fill="url(#Gradient_1)"/>
    <path d="M368.125,813.625 C368.833,812.063 370.546,810.627 370.25,808.938 C369.782,806.271 363.385,798.938 360.25,798.938 C354.249,798.938 352.866,804.785 354.25,808.938 C355.297,812.078 362.592,819.569 362.25,820.938 C360.323,828.644 344.512,816.85 344.25,816.938 C342.353,817.57 343.221,821.223 344.25,822.938 C345.487,824.999 348.1,825.863 350.25,826.938 C352.136,827.88 356.25,826.829 356.25,828.938 C356.25,835.631 338.317,831.271 340.25,840.938 C340.727,843.32 350.352,846.621 352.25,846.938 C354.223,847.266 358.25,844.938 358.25,846.938 C358.25,857.786 343.552,850.461 340.25,852.938 C338.563,854.202 338.597,856.858 338.25,858.938 C337.734,862.031 338.161,868.326 340.25,870.938 C342.93,874.288 357.775,877.57 352.25,884.938 C348.956,889.33 336.183,885.005 334.25,886.938 C327.432,893.756 345.506,896.66 344.25,902.938 C343.779,905.295 339.487,904.876 338.25,906.938 C335.728,911.142 341.472,922.159 344.25,924.938 C345.95,926.637 349.013,926.876 350.25,928.938 C351.279,930.653 350.579,932.965 350.25,934.938 C349.903,937.017 347.081,939.183 348.25,940.938 C349.359,942.602 352.25,940.938 354.25,940.938 C356.25,940.938 358.353,941.57 360.25,940.938 C365.651,939.137 368.133,936.588 366.25,930.938 C365.778,929.523 358.89,921.658 360.25,918.938 C371.195,897.047 361.457,939.919 372.25,912.938 C375.496,904.822 366.337,907.72 364.25,904.938 C363.05,903.338 363.921,900.91 364.25,898.938 C365.804,889.612 370.499,890.938 378.25,890.938 C380.25,890.938 382.65,892.138 384.25,890.938 C385.937,889.673 387.193,886.823 386.25,884.938 C385.307,883.052 382.329,883.284 380.25,882.938 C378.277,882.609 374.25,884.938 374.25,882.938 C374.25,874.938 390.25,882.938 374.25,874.938 C372.364,873.995 368.25,875.046 368.25,872.938 C368.25,868.63 386.25,873.245 386.25,868.938 C386.25,861.924 368.25,866.365 368.25,864.938 C368.25,859.541 378.77,861.897 380.25,858.938 C381.193,857.052 379.937,854.202 378.25,852.938 C376.65,851.738 372.25,850.938 372.25,852.938 C372.25,854.938 376.25,852.938 378.25,852.938 C380.25,852.938 384.25,854.938 384.25,852.938 C384.25,840.436 369.622,858.708 372.25,842.938 C372.597,840.858 372.563,838.202 374.25,836.938 C374.866,836.476 390.492,836.938 392.25,836.938 C394.25,836.938 397.618,838.835 398.25,836.938 C400.771,829.373 384.659,829.347 382.25,826.938 C380.759,825.447 380.597,823.017 380.25,820.938 C379.921,818.965 381.664,816.352 380.25,814.938 C377.422,812.109 371.45,817.338 368.25,814.938 C366.563,813.673 366.917,810.938 366.25,808.938" fill="url(#Gradient_2)"/>
    <path d="M336.547,942.172 C338.602,942.872 354.25,952.079 354.25,952.938 C354.25,955.341 350.53,956.177 348.25,956.938 C345.915,957.716 338.062,956.75 336.25,954.938 C334.759,953.447 334.597,951.017 334.25,948.938 C333.921,946.965 333.356,944.726 334.25,942.938 C335.515,940.408 338.25,938.938 340.25,936.938" fill="url(#Gradient_3)"/>
    <path d="M390.57,912.086 C388.184,911.452 382.55,909.558 380.25,910.938 C372.631,915.509 376.536,919.033 382.25,920.938 C384.147,921.57 386.25,920.938 388.25,920.938 C390.25,920.938 392.65,922.138 394.25,920.938 C400.65,916.137 393.854,912.139 390.25,910.938 C388.353,910.305 386.25,910.938 384.25,910.938" fill="url(#Gradient_4)"/>
    <path d="M468.875,782.602 C469.264,787.045 484.873,783.905 486.25,784.938 C488.917,786.938 488.917,794.938 486.25,796.938 C484.65,798.138 480.25,794.938 480.25,796.938 C480.25,799.341 484.1,799.863 486.25,800.938 C491.515,803.57 492.639,802.938 498.25,802.938 C500.25,802.938 502.65,801.737 504.25,802.938 C505.937,804.202 507.193,807.052 506.25,808.938 C504.282,812.873 488.384,809.272 492.25,818.938 C493.614,822.347 503.492,821.948 498.25,828.938 C496.519,831.245 486.4,829.137 492.25,836.938 C494.57,840.03 503.877,836.804 502.25,844.938 C500.451,853.931 493.307,844.823 490.25,850.938 C488.364,854.709 495.816,859.023 494.25,862.938 C493.357,865.169 490.4,865.863 488.25,866.938 C483.892,869.117 474.992,869.728 470.25,868.938 C468.171,868.591 466.329,867.284 464.25,866.938 C462.277,866.609 459.85,868.138 458.25,866.938 C446.73,858.297 468.25,859.716 468.25,856.938 C468.25,844.452 459.836,854.523 456.25,850.938 C454.836,849.523 454.836,846.352 456.25,844.938 C458.648,842.54 468.359,849.483 466.25,838.938 C465.779,836.58 460.25,837.341 460.25,834.938 C460.25,830.721 471.227,835.028 472.25,830.938 C477.241,810.975 462.25,835.17 462.25,824.938 C462.25,822.829 466.985,824.624 468.25,822.938 C474.1,815.137 463.981,817.245 462.25,814.938 C455.873,806.435 468.25,810.166 468.25,804.938 C468.25,802.829 463.741,804.428 462.25,802.938 C460.759,801.447 460.597,799.017 460.25,796.938 C458.97,789.256 459.702,791.12 466.25,788.938 C468.25,788.271 470.25,787.604 472.25,786.938" fill="url(#Gradient_5)"/>
    <path d="M473.312,872.609 C471.625,872.052 470.007,871.203 468.25,870.938 C464.155,870.319 451.178,870.485 456.25,878.938 C457.859,881.62 464.884,884.957 468.25,882.938 C470.311,881.701 471.49,879.218 472.25,876.938 C472.882,875.04 472.25,872.938 472.25,870.938" fill="url(#Gradient_6)"/>
    <path d="M511.156,850.75 C509.521,851.479 508.006,852.585 506.25,852.938 C503.822,853.425 494.83,852.357 494.25,852.938 C488.46,858.728 501.92,865.536 506.25,862.938 C516.404,856.845 508.158,856.24 504.25,854.938" fill="url(#Gradient_7)"/>
    <path d="M585.023,804.227 C591.054,803.706 596.374,799.917 602.25,798.938 C606.196,798.28 610.25,798.938 614.25,798.938 C618.719,798.938 628.216,798.265 632.25,798.938 C634.33,799.284 636.25,800.271 638.25,800.938 C639.73,801.431 650.25,804.353 650.25,806.938 C650.25,816.908 619.015,803.998 622.25,816.938 C622.761,818.983 626.171,818.591 628.25,818.938 C632.265,819.607 647.217,818.938 652.25,818.938 C654.25,818.938 658.25,816.938 658.25,818.938 C658.25,821.046 654.33,820.591 652.25,820.938 C650.277,821.266 648.223,820.609 646.25,820.938 C644.171,821.284 642.33,822.591 640.25,822.938 C638.277,823.266 636.223,822.609 634.25,822.938 C632.171,823.284 628.25,822.829 628.25,824.938 C628.25,827.046 632.171,826.591 634.25,826.938 C638.265,827.607 653.217,826.938 658.25,826.938 C660.25,826.938 664.25,824.938 664.25,826.938 C664.25,832.453 654.277,830.6 652.25,830.938 C650.171,831.284 648.33,832.591 646.25,832.938 C644.277,833.266 642.223,832.609 640.25,832.938 C638.171,833.284 634.25,832.829 634.25,834.938 C634.25,837.046 638.25,836.271 640.25,836.938 C642.25,837.604 644.171,838.591 646.25,838.938 C648.277,839.275 658.25,837.422 658.25,842.938 C658.25,848.877 643.004,846.938 640.25,846.938 C638.25,846.938 634.25,844.938 634.25,846.938 C634.25,849.046 638.25,848.271 640.25,848.938 C642.25,849.604 644.364,849.995 646.25,850.938 C648.4,852.013 649.97,854.177 652.25,854.938 C654.147,855.57 658.25,852.938 658.25,854.938 C658.25,857.341 654.4,857.863 652.25,858.938 C650.364,859.88 648.33,860.591 646.25,860.938 C642.621,861.542 622.139,858.661 626.25,868.938 C627.922,873.116 640.545,875.085 644.25,876.938 C664.083,886.854 632.25,883.649 632.25,886.938 C632.25,888.938 636.277,886.609 638.25,886.938 C640.33,887.284 642.171,888.591 644.25,888.938 C646.223,889.266 648.353,888.305 650.25,888.938 C658.342,891.635 655.194,892.826 658.25,898.938 C660.4,903.237 663.583,906.938 666.25,910.938 C667.583,912.938 670.721,914.581 670.25,916.938 C669.779,919.295 666.4,919.863 664.25,920.938 C656.028,925.049 660.666,921.535 652.25,922.938 C646.088,923.965 640.412,927.911 634.25,928.938 C630.304,929.595 626.196,928.28 622.25,928.938 C619.579,929.383 606.709,933.708 604.25,934.938 C602.1,936.013 600.4,937.863 598.25,938.938 C590.028,943.049 594.666,939.535 586.25,940.938 C584.171,941.284 582.33,942.591 580.25,942.938 C578.277,943.266 576.25,942.938 574.25,942.938 C572.25,942.938 569.85,944.138 568.25,942.938 C563.73,939.548 568.608,929.295 564.25,924.938 C561.67,922.357 549.661,922.369 546.25,922.938 C544.171,923.284 541.193,926.823 540.25,924.938 C535.004,914.446 556.25,922.884 556.25,914.938 C556.25,906.953 540.578,913.265 538.25,910.938 C533.443,906.13 542.918,902.279 542.25,898.938 C540.74,891.385 522.52,899.244 530.25,888.938 C531.73,886.965 542.25,887.209 542.25,882.938 C542.25,880.109 537.515,879.467 536.25,876.938 C533.314,871.065 538.115,869.005 542.25,866.938 C544.136,865.995 546.364,865.88 548.25,864.938 C550.4,863.863 552.1,862.013 554.25,860.938 C556.136,859.995 560.25,861.046 560.25,858.938 C560.25,851.872 537.039,856.675 554.25,850.938 C556.25,850.271 558.171,849.284 560.25,848.938 C562.223,848.609 564.277,849.266 566.25,848.938 C572.412,847.911 578.088,843.965 584.25,842.938 C600.466,840.235 579.806,846.419 596.25,840.938 C598.25,840.271 602.25,841.046 602.25,838.938 C602.25,832.368 593.836,832.34 590.25,832.938 C588.171,833.284 586.33,834.591 584.25,834.938 C582.277,835.266 580.25,834.938 578.25,834.938 C576.25,834.938 573.359,836.602 572.25,834.938 C566.38,826.132 584.479,829.233 586.25,828.938 C588.33,828.591 590.171,827.284 592.25,826.938 C594.223,826.609 598.25,828.938 598.25,826.938 C598.25,824.829 594.136,825.88 592.25,824.938 C590.1,823.863 588.53,821.698 586.25,820.938 C584.353,820.305 580.25,822.938 580.25,820.938 C580.25,818.534 584.748,818.815 586.25,816.938 C587.567,815.291 587.583,812.938 588.25,810.938 C588.917,808.938 589.583,806.938 590.25,804.938" fill="url(#Gradient_8)"/>
    <path d="M555.789,828.43 C553.943,827.932 552.146,827.183 550.25,826.938 C548.267,826.681 546.25,826.938 544.25,826.938 C542.25,826.938 539.965,825.909 538.25,826.938 C529.065,832.449 535.492,834.145 540.25,834.938 C542.223,835.266 544.25,834.938 546.25,834.938 C548.25,834.938 550.535,835.966 552.25,834.938 C562.404,828.845 554.158,828.24 550.25,826.938" fill="url(#Gradient_9)"/>
    <path d="M549.789,816.914 C544.424,816.937 543.396,816.365 538.25,818.938 C531.85,822.138 528.65,823.738 538.25,826.938 C543.45,828.671 545.418,825.743 550.25,824.938 C552.223,824.609 554.353,825.57 556.25,824.938 C564.25,822.271 564.25,819.604 556.25,816.938 C552.196,815.586 547.874,817.73 544.25,818.938" fill="url(#Gradient_10)"/>
    <path d="M561.008,805.867 C557.12,805.107 554.36,804.252 550.25,804.938 C531.77,808.018 549.715,818.205 556.25,814.938 C571.783,807.171 555.045,806.938 550.25,806.938" fill="url(#Gradient_11)"/>
    <path d="M575.367,787.305 C571.717,787.115 553.924,785.59 552.25,788.938 C548.301,796.835 558.385,794.938 560.25,794.938 C562.25,794.938 564.353,795.57 566.25,794.938 C568.53,794.177 570.25,792.271 572.25,790.938" fill="url(#Gradient_12)"/>
    <path d="M516.375,775.789 C515,776.172 513.668,776.777 512.25,776.938 C508.452,777.368 495.554,774.418 494.25,780.938 C492.836,788.005 501.274,787.434 504.25,786.938 C506.877,786.5 515.527,784.044 514.25,778.938 C513.739,776.892 510.25,777.604 508.25,776.938" fill="url(#Gradient_13)"/>
    <path d="M956.695,792.242 C957.214,793.807 957.016,795.844 958.25,796.938 C959.828,798.336 962.25,798.271 964.25,798.938 C966.25,799.604 968.17,800.591 970.25,800.938 C972.223,801.266 974.25,800.938 976.25,800.938 C978.25,800.938 980.277,801.266 982.25,800.938 C986.409,800.244 990.091,797.631 994.25,796.938 C998.196,796.28 1002.25,796.938 1006.25,796.938 C1008.25,796.938 1011.141,795.273 1012.25,796.938 C1013.419,798.692 1011.937,801.673 1010.25,802.938 C1008.65,804.138 1006.25,802.938 1004.25,802.938 C1002.492,802.938 986.866,802.476 986.25,802.938 C984.563,804.202 983.307,807.052 984.25,808.938 C986.069,812.575 1009.742,810.186 1014.25,810.938 C1016.329,811.284 1020.25,810.829 1020.25,812.938 C1020.25,815.356 1004.462,820.569 1002.25,820.938 C1000.277,821.266 996.25,818.938 996.25,820.938 C996.25,823.341 1000.1,823.863 1002.25,824.938 C1010.475,829.05 1022.056,824.744 1026.25,828.938 C1027.741,830.428 1029.419,833.183 1028.25,834.938 C1028.076,835.199 1011.909,834.661 1010.25,834.938 C1008.17,835.284 1006.25,836.271 1004.25,836.938 C1002.25,837.604 1000.136,837.995 998.25,838.938 C996.1,840.012 994.4,841.863 992.25,842.938 C988.616,844.754 982.706,844.843 980.25,848.938 C978.049,852.605 981.785,858.966 984.25,860.938 C985.896,862.254 988.25,862.271 990.25,862.938 C994.25,864.271 998.091,866.244 1002.25,866.938 C1006.5,867.646 1026.469,866.938 1032.25,866.938 C1032.866,866.938 1044.25,866.305 1044.25,868.938 C1044.25,871.046 1040.25,870.271 1038.25,870.938 C1036.25,871.604 1034.329,872.591 1032.25,872.938 C1028.235,873.607 1013.283,872.938 1008.25,872.938 C1006.25,872.938 1004.223,872.609 1002.25,872.938 C1000.17,873.284 998.329,874.591 996.25,874.938 C992.664,875.535 984.25,872.678 984.25,880.938 C984.25,883.341 987.97,884.177 990.25,884.938 C992.147,885.57 994.25,884.938 996.25,884.938 C998.25,884.938 1000.25,884.938 1002.25,884.938 C1006.719,884.938 1016.216,884.265 1020.25,884.938 C1022.329,885.284 1024.171,886.591 1026.25,886.938 C1028.277,887.275 1038.25,885.422 1038.25,890.938 C1038.25,892.938 1034.223,890.609 1032.25,890.938 C1030.171,891.284 1028.329,892.591 1026.25,892.938 C1024.277,893.266 1022.223,892.609 1020.25,892.938 C1018.17,893.284 1016.329,894.591 1014.25,894.938 C1010.304,895.595 1006.196,894.28 1002.25,894.938 C1000.17,895.284 998.329,896.591 996.25,896.938 C994.277,897.266 992.223,896.609 990.25,896.938 C988.17,897.284 986.329,898.591 984.25,898.938 C982.277,899.266 979.85,897.737 978.25,898.938 C974.917,901.438 976.25,908.438 978.25,910.938 C983.341,917.301 983.987,913.894 990.25,914.938 C992.329,915.284 994.17,916.591 996.25,916.938 C1000.196,917.595 1004.304,916.28 1008.25,916.938 C1010.329,917.284 1012.17,918.591 1014.25,918.938 C1014.866,919.04 1026.25,918.197 1026.25,920.938 C1026.25,923.046 1022.329,922.591 1020.25,922.938 C1018.277,923.266 1016.223,922.609 1014.25,922.938 C1010.091,923.631 1006.25,925.604 1002.25,926.938 C1000.25,927.604 998.136,927.995 996.25,928.938 C994.1,930.012 992.25,931.604 990.25,932.938 C988.25,934.271 985.95,935.238 984.25,936.938 C978.394,942.794 983.275,944.442 974.25,942.938 C970.906,942.38 964.376,939.595 962.25,936.938 C960.933,935.291 961.567,932.584 960.25,930.938 C959.771,930.339 943.088,919.217 942.25,918.938 C938.455,917.673 934.196,919.595 930.25,918.938 C928.17,918.591 926.329,917.284 924.25,916.938 C920.304,916.28 916.25,916.938 912.25,916.938 C908.25,916.938 904.196,917.595 900.25,916.938 C896.091,916.244 892.409,913.631 888.25,912.938 C886.277,912.609 884.223,913.266 882.25,912.938 C880.17,912.591 878.329,911.284 876.25,910.938 C874.277,910.609 872.223,911.266 870.25,910.938 C868.17,910.591 866.329,909.284 864.25,908.938 C862.277,908.609 860.223,909.266 858.25,908.938 C856.17,908.591 854.329,907.284 852.25,906.938 C850.277,906.609 848.223,907.266 846.25,906.938 C842.091,906.244 838.409,903.631 834.25,902.938 C832.122,902.583 812.378,902.583 810.25,902.938 C808.17,903.284 806.329,904.591 804.25,904.938 C799.529,905.724 796.577,903.476 792.25,906.938 C777.64,918.626 794.25,908.727 794.25,914.938 C794.25,918.94 777.743,915.817 776.25,916.938 C767.772,923.296 780.25,924.566 780.25,928.938 C780.25,930.938 775.965,927.909 774.25,928.938 C772.189,930.174 770.645,932.566 770.25,934.938 C769.248,940.951 780.269,946.601 766.25,948.938 C764.277,949.266 762.223,948.609 760.25,948.938 C758.17,949.284 756.136,951.88 754.25,950.938 C751.26,949.443 752.589,940.972 752.25,938.938 C751.903,936.858 750.597,935.017 750.25,932.938 C749.921,930.965 751.279,928.652 750.25,926.938 C749.013,924.876 746.4,924.012 744.25,922.938 C735.12,918.372 724.811,924.54 720.25,916.938 C719.221,915.222 720.25,912.938 720.25,910.938 C720.25,908.938 719.921,906.91 720.25,904.938 C720.64,902.597 724.377,895.774 722.25,892.938 C719.72,889.564 712.136,892.709 710.25,888.938 C706.182,880.801 721.823,881.365 724.25,878.938 C725.741,877.447 725.903,875.017 726.25,872.938 C728.911,856.974 714.25,874.674 714.25,864.938 C714.25,864.497 732.25,860.298 732.25,856.938 C732.25,854.829 727.896,856.254 726.25,854.938 C724.373,853.436 723.583,850.938 722.25,848.938 C720.917,846.938 717.667,845.269 718.25,842.938 C719.481,838.014 730.353,845.194 726.25,834.938 C723.858,828.957 701.804,829.681 708.25,818.938 C709.487,816.876 711.97,815.698 714.25,814.938 C715.24,814.607 730.863,814.706 732.25,814.938 C734.329,815.284 736.17,816.591 738.25,816.938 C740.328,817.284 754.172,817.284 756.25,816.938 C763.823,815.675 760.45,813.637 768.25,814.938 C781.852,817.204 766.429,816.33 780.25,820.938 C782.147,821.57 784.25,820.938 786.25,820.938 C788.25,820.938 790.25,820.938 792.25,820.938 C796.673,820.938 809.89,821.477 810.25,820.938 C814.216,814.988 801.99,815.197 808.25,808.938 C809.664,807.523 812.25,808.938 814.25,808.938 C824.779,808.938 816.031,807.828 826.25,812.938 C830.021,814.823 834.25,815.604 838.25,816.938 C840.25,817.604 843.307,820.823 844.25,818.938 C845.325,816.788 841.95,814.637 840.25,812.938 C834.518,807.206 834.757,810.191 828.25,806.938 C821.339,803.482 823.791,802.194 816.25,800.938 C814.277,800.609 812.147,801.57 810.25,800.938 C807.97,800.177 804.25,799.341 804.25,796.938 C804.25,791.828 814.223,792.938 816.25,792.938 C818.25,792.938 820.353,792.305 822.25,792.938 C824.53,793.698 826.1,795.863 828.25,796.938 C830.136,797.88 832.364,799.88 834.25,798.938 C845.647,793.239 824.177,789.156 826.25,782.938 C826.882,781.04 830.461,782.043 832.25,782.938 C834.78,784.202 835.897,787.369 838.25,788.938 C839.708,789.909 854.261,794.606 856.25,794.938 C858.223,795.266 860.25,794.938 862.25,794.938 C864.25,794.938 866.836,796.352 868.25,794.938 C871.138,792.049 863.55,777.638 864.25,776.938 C865.741,775.447 868.364,777.995 870.25,778.938 C875.237,781.431 883.33,787.657 888.25,790.938 C892.547,793.802 894.648,796.805 900.25,794.938 C909.657,791.802 902.396,789.295 912.25,790.938 C918.722,792.016 923.314,796.093 930.25,794.938 C934.409,794.244 938.091,791.631 942.25,790.938 C944.223,790.609 946.25,790.938 948.25,790.938 C950.25,790.938 952.65,789.737 954.25,790.938 C955.937,792.202 955.583,794.938 956.25,796.938" fill="url(#Gradient_14)"/>
    <path d="M927.461,777.906 C921.842,776.364 916.001,776.938 910.25,776.938 C908.25,776.938 905.664,775.523 904.25,776.938 C896.737,784.451 913.916,785.326 916.25,784.938 C917.85,784.671 927.983,782.538 924.25,776.938 C923.141,775.273 920.25,776.938 918.25,776.938" fill="url(#Gradient_15)"/>
    <path d="M849.156,776.492 C845.869,777.073 826.944,776.163 826.25,778.938 C824.334,786.602 833.692,784.938 836.25,784.938 C838.25,784.938 840.836,786.352 842.25,784.938 C843.664,783.523 842.25,780.938 842.25,778.938" fill="url(#Gradient_16)"/>
    <path d="M971.312,944.281 C969.625,943.833 967.983,943.148 966.25,942.938 C963.539,942.608 948.25,941.698 948.25,946.938 C948.25,949.046 952.171,948.591 954.25,948.938 C956.463,949.306 964.567,949.181 966.25,946.938 C967.45,945.338 966.25,942.938 966.25,940.938" fill="url(#Gradient_17)"/>
    <path d="M974.18,961.438 C972.203,960.604 970.361,959.316 968.25,958.938 C965.625,958.466 962.917,958.938 960.25,958.938 C958.25,958.938 955.85,957.737 954.25,958.938 C945.075,965.819 958.427,966.677 960.25,966.938 C963.409,967.389 978.205,966.847 974.25,958.938 C973.307,957.052 970.25,957.604 968.25,956.938" fill="url(#Gradient_18)"/>
    <path d="M826.711,913.969 C834.419,915.601 842.41,914.938 850.25,914.938 C852.25,914.938 854.277,914.609 856.25,914.938 C858.33,915.284 860.171,916.591 862.25,916.938 C864.223,917.266 866.277,916.609 868.25,916.938 C870.33,917.284 872.171,918.591 874.25,918.938 C876.223,919.266 878.277,918.609 880.25,918.938 C882.33,919.284 884.171,920.591 886.25,920.938 C890.196,921.595 894.304,920.28 898.25,920.938 C900.33,921.284 902.171,922.591 904.25,922.938 C905.971,923.224 916.35,920.738 912.25,928.938 C910.934,931.57 902.115,930.938 900.25,930.938 C898.25,930.938 896.223,931.266 894.25,930.938 C890.091,930.244 886.409,927.631 882.25,926.938 C878.304,926.28 874.196,927.595 870.25,926.938 C866.091,926.244 862.409,923.631 858.25,922.938 C856.277,922.609 854.223,923.266 852.25,922.938 C850.171,922.591 848.33,921.284 846.25,920.938 C845.128,920.75 834.649,921.137 834.25,920.938 C831.72,919.673 830.25,916.938 828.25,914.938" fill="url(#Gradient_19)"/>
    <path d="M911.797,938.875 C902.493,931.114 903.353,935.42 894.25,936.938 C892.277,937.266 890.223,936.609 888.25,936.938 C872.455,939.57 891.85,938.938 876.25,938.938 C874.25,938.938 872.223,939.266 870.25,938.938 C862.677,937.675 866.05,935.638 858.25,936.938 C854.297,937.596 848.508,938.702 852.25,944.938 C853.487,946.999 855.97,948.177 858.25,948.938 C865.64,951.401 863.804,947.086 870.25,944.938 C872.147,944.305 874.277,945.266 876.25,944.938 C878.33,944.591 880.171,943.284 882.25,942.938 C884.223,942.609 886.277,943.266 888.25,942.938 C890.33,942.591 892.171,941.284 894.25,940.938 C896.76,940.519 911.033,941.85 912.25,940.938 C913.937,939.673 913.583,936.938 914.25,934.938" fill="url(#Gradient_20)"/>
  </g>
  <g id="Layer 5">
    <path d="M251.188,773.148 C249.625,773.766 248.155,774.713 246.5,775 C242.559,775.683 238.446,774.342 234.5,775 C232.421,775.347 230.579,776.653 228.5,777 C226.527,777.329 224.473,776.671 222.5,777 C220.421,777.347 218.579,778.653 216.5,779 C214.527,779.329 212.473,778.671 210.5,779 C208.421,779.347 206.579,780.653 204.5,781 C197.628,782.145 187.372,779.855 180.5,781 C178.421,781.347 176.579,782.653 174.5,783 C170.25,783.708 150.281,783 144.5,783 C142.5,783 140.5,783 138.5,783 C136.5,783 134.397,783.632 132.5,783 C127.939,781.48 125.061,776.52 120.5,775 C118.603,774.367 116.473,775.329 114.5,775 C112.421,774.653 110.58,773.347 108.5,773 C106.527,772.671 104.1,774.2 102.5,773 C99.868,771.026 100.5,763.489 100.5,761 C100.5,759 100.171,756.973 100.5,755 C102.062,745.63 110.415,739.17 114.5,731 C117.961,724.078 114.824,717.594 118.5,713 C123.591,706.636 124.237,710.044 130.5,709 C132.579,708.653 134.854,708.317 136.5,707 C138.377,705.498 139.167,703 140.5,701 C141.833,699 143.74,697.28 144.5,695 C147.856,684.933 136.861,681.951 134.5,679 C133.183,677.354 133.167,675 132.5,673 C131.833,671 130.847,669.079 130.5,667 C130.171,665.027 130.5,663 130.5,661 C130.5,659 129.606,656.789 130.5,655 C134.745,646.51 152.038,643.59 160.5,645 C165.332,645.805 167.3,648.733 172.5,647 C174.78,646.24 176.5,644.333 178.5,643 C180.5,641.667 182.8,640.7 184.5,639 C186.2,637.3 187.167,635 188.5,633 C192.303,627.296 195.708,622.25 194.5,615 C194.153,612.92 192.847,611.079 192.5,609 C192.055,606.331 192.336,599.164 194.5,597 C198.773,592.727 201.83,596.557 206.5,595 C208.78,594.24 210.22,591.76 212.5,591 C215.138,590.12 222.368,591.295 224.5,593 C226.377,594.502 226.8,597.3 228.5,599 C231.778,602.278 241.885,606.231 246.5,607 C250.937,607.74 267.643,606.048 270.5,607 C274.177,608.226 284.186,616.843 288.5,619 C290.386,619.943 292.5,620.333 294.5,621 C299.993,622.831 314.106,626.803 318.5,629 C325.411,632.455 322.959,633.743 330.5,635 C332.473,635.329 334.527,634.671 336.5,635 C338.579,635.347 340.421,636.653 342.5,637 C344.473,637.329 346.527,636.671 348.5,637 C350.579,637.347 352.421,638.653 354.5,639 C356.473,639.329 358.527,638.671 360.5,639 C362.579,639.347 364.5,640.333 366.5,641 C368.5,641.667 370.854,641.683 372.5,643 C374.377,644.502 375.167,647 376.5,649 C377.833,651 379.425,652.85 380.5,655 C381.443,656.886 382.153,658.92 382.5,661 C382.731,662.387 382.83,678.01 382.5,679 C381.74,681.28 379.575,682.85 378.5,685 C377.557,686.886 377.669,689.246 376.5,691 C374.931,693.353 372.069,694.647 370.5,697 C369.331,698.754 369.817,701.354 368.5,703 C366.998,704.877 364.347,705.461 362.5,707 C360.327,708.811 358.673,711.189 356.5,713 C353.528,715.476 341.904,723.298 338.5,725 C334.729,726.886 330.271,727.114 326.5,729 C322.2,731.15 318.8,734.85 314.5,737 C312.614,737.943 310.254,737.831 308.5,739 C306.147,740.569 304.853,743.431 302.5,745 C300.746,746.169 298.254,745.831 296.5,747 C283.23,755.846 297.587,750.456 284.5,757 C282.614,757.943 280.386,758.057 278.5,759 C276.35,760.075 274.65,761.925 272.5,763 C270.614,763.943 268.5,764.333 266.5,765 C258.5,767.667 250.5,770.333 242.5,773" fill="#ACD025"/>
    <path d="M257.453,665.289 C256.469,663.859 255.92,661.998 254.5,661 C252.775,659.788 250.5,659.667 248.5,659 C246.5,658.333 244.579,657.347 242.5,657 C240.527,656.671 238.473,656.671 236.5,657 C234.42,657.347 232.5,658.333 230.5,659 C228.5,659.667 226.386,660.057 224.5,661 C222.35,662.075 220.65,663.925 218.5,665 C216.333,666.083 196.801,672.617 194.5,673 C192.527,673.329 190.5,673 188.5,673 C183.072,673 180.588,674.109 176.5,669 C175.183,667.354 175.817,664.646 174.5,663 C172.998,661.123 170.002,660.877 168.5,659 C166.71,656.762 165.427,643.146 166.5,641 C171.005,631.99 171.729,636.129 178.5,635 C180.579,634.653 182.42,633.347 184.5,633 C188.446,632.342 192.554,633.658 196.5,633 C198.579,632.653 200.42,631.347 202.5,631 C206.515,630.331 221.467,631 226.5,631 C235.24,631 235.971,630.157 244.5,633 C246.5,633.667 248.854,633.683 250.5,635 C253.732,637.586 260.846,655.091 258.5,659 C255.434,664.109 251.078,663 246.5,663" fill="#88AE19"/>
    <path d="M244.141,646.953 C242.26,646.969 239.983,648.156 238.5,647 C234.967,644.247 235.604,631.896 238.5,629 C241.789,625.711 246.764,627.623 250.5,627 C264.102,624.733 248.679,625.607 262.5,621 C264.397,620.368 266.5,621 268.5,621 C270.5,621 272.785,619.971 274.5,621 C276.561,622.237 277.74,624.72 278.5,627 C280.577,633.23 275.466,639.201 274.5,645 C273.831,649.015 274.5,663.967 274.5,669 C274.5,671 275.529,673.285 274.5,675 C272.964,677.56 265.326,680.529 262.5,681 C260.527,681.329 258.473,681.329 256.5,681 C254.42,680.653 252.5,679.667 250.5,679 C248.5,678.333 245.991,678.491 244.5,677 C243.009,675.509 243.167,673 242.5,671 C241.833,669 240.5,667.108 240.5,665 C240.5,660.784 244.5,657.216 244.5,653 C244.5,646.56 241.107,646.071 236.5,643" fill="#648909"/>
    <path d="M337.055,665.992 C329.73,664.242 321.997,665 314.5,665 C312.5,665 310.473,665.329 308.5,665 C302.093,663.932 294.667,659.501 292.5,653 C291.868,651.103 292.5,649 292.5,647 C292.5,645 291.868,642.897 292.5,641 C295.197,632.909 296.388,636.056 302.5,633 C304.65,631.925 306.5,630.333 308.5,629 C310.5,627.667 312.8,626.7 314.5,625 C316.2,623.3 316.439,620.237 318.5,619 C320.215,617.971 322.527,619.329 324.5,619 C326.579,618.653 328.421,617.347 330.5,617 C332.473,616.671 334.5,617 336.5,617 C338.5,617 340.603,616.368 342.5,617 C344.78,617.76 346.998,619.123 348.5,621 C349.817,622.646 349.833,625 350.5,627 C351.167,629 352.153,630.921 352.5,633 C352.829,634.973 352.829,637.027 352.5,639 C351.807,643.159 349.193,646.841 348.5,651 C347.456,657.263 350.864,657.909 344.5,663 C340.054,666.557 331.652,665 326.5,665" fill="#88AC1F"/>
    <path d="M354.281,669.516 C353.688,668.01 352.466,666.618 352.5,665 C352.725,654.172 365.466,654.517 372.5,651 C382.316,646.092 377.472,645 390.5,645 C392.5,645 394.9,643.8 396.5,645 C398.187,646.265 397.833,649 398.5,651 C401.132,658.897 400.5,654.892 400.5,663 C400.5,671.917 399.262,672.715 396.5,681 C395.833,683 395.443,685.114 394.5,687 C393.48,689.039 383.89,703.888 382.5,705 C380.854,706.317 378.146,705.683 376.5,707 C374.623,708.502 373.833,711 372.5,713 C370.5,714.333 368.5,715.667 366.5,717 C364.5,718.333 362.65,719.925 360.5,721 C358.614,721.943 356.146,721.683 354.5,723 C347.567,728.546 349.087,740.413 342.5,747 C340.8,748.7 338.5,749.667 336.5,751 C334.5,752.333 332.65,753.925 330.5,755 C328.614,755.943 326.386,756.057 324.5,757 C322.35,758.075 320.65,759.925 318.5,761 C314.729,762.886 309.792,762.366 306.5,765 C304.623,766.502 304.561,769.763 302.5,771 C300.785,772.029 298.397,770.368 296.5,771 C294.22,771.76 292.65,773.925 290.5,775 C286.729,776.886 282.271,777.114 278.5,779 C276.35,780.075 274.65,781.925 272.5,783 C268.729,784.886 264.271,785.114 260.5,787 C258.35,788.075 256.65,789.925 254.5,791 C250.729,792.886 246.5,793.667 242.5,795 C234.5,797.667 226.5,800.333 218.5,803 C213.892,804.536 204.931,808.261 200.5,809 C198.527,809.329 196.473,808.671 194.5,809 C188.338,810.027 182.662,813.973 176.5,815 C174.527,815.329 172.473,814.671 170.5,815 C168.42,815.347 166.579,816.653 164.5,817 C162.422,817.346 148.578,817.346 146.5,817 C144.42,816.653 142.579,815.347 140.5,815 C139.088,814.765 128.928,815.257 128.5,815 C125.269,813.061 123.56,806.18 122.5,803 C119.825,794.974 119.825,793.026 122.5,785 C123.167,783 123.183,780.646 124.5,779 C134.839,766.076 127.473,784.081 132.5,769 C134.5,763 136.5,757 138.5,751 C139.56,747.82 141.269,740.939 144.5,739 C146.215,737.971 148.5,739 150.5,739 C152.5,739 154.527,738.671 156.5,739 C161.735,739.872 176.29,748.614 180.5,743 C181.7,741.4 180.829,738.973 180.5,737 C180.153,734.921 179.167,733 178.5,731 C177.833,729 177.991,726.491 176.5,725 C175.009,723.509 172.146,724.317 170.5,723 C165.589,719.071 161.344,704.156 166.5,699 C167.991,697.509 170.5,697.667 172.5,697 C176.5,695.667 180.341,693.693 184.5,693 C188.534,692.328 198.031,693 202.5,693 C204.5,693 206.5,693 208.5,693 C210.5,693 212.785,691.971 214.5,693 C216.561,694.237 216.8,697.3 218.5,699 C223.609,704.109 224.222,703 230.5,703 C232.5,703 234.9,704.2 236.5,703 C238.187,701.735 237.557,698.886 238.5,697 C240.031,693.937 245.551,686.474 248.5,685 C250.289,684.106 252.5,685 254.5,685 C256.5,685 258.603,684.368 260.5,685 C274.321,689.607 258.898,688.733 272.5,691 C274.473,691.329 276.527,691.329 278.5,691 C280.579,690.653 282.543,688.217 284.5,689 C289.647,691.059 289.38,706.472 298.5,701 C301.059,699.464 304.029,691.826 304.5,689 C304.829,687.027 303.3,684.6 304.5,683 C306.474,680.368 314.011,681 316.5,681 C325.24,681 325.971,681.843 334.5,679 C336.5,678.333 338.614,677.943 340.5,677 C356.5,669 337.167,677.667 350.5,667 C352.146,665.683 354.5,665.667 356.5,665" fill="#89AF1C"/>
    <path d="M226.391,768.688 C224.427,768.125 222.343,767.881 220.5,767 C216.163,764.926 212.8,761.15 208.5,759 C200.278,754.889 204.916,758.403 196.5,757 C186.793,755.382 186.802,750.093 182.5,763 C181.699,765.403 178.763,772.104 180.5,775 C184.568,781.78 204.34,779.267 198.5,789 C195.243,794.429 185.499,794.501 180.5,797 C178.35,798.075 176.2,799.3 174.5,801 C171.535,803.965 165.221,814.672 164.5,819 C164.171,820.973 164.829,823.027 164.5,825 C164.153,827.079 161.717,829.043 162.5,831 C163.393,833.232 166.35,833.925 168.5,835 C170.386,835.943 172.392,837 174.5,837 C175.77,837 190.976,831.762 192.5,831 C194.65,829.925 196.8,828.7 198.5,827 C200.2,825.3 200.623,822.502 202.5,821 C204.146,819.683 206.5,819.667 208.5,819 C210.5,818.333 212.5,817.667 214.5,817 C216.5,816.333 218.614,815.943 220.5,815 C222.65,813.925 224.22,811.76 226.5,811 C228.397,810.368 230.527,811.329 232.5,811 C236.659,810.307 240.341,807.693 244.5,807 C246.578,806.654 260.422,806.654 262.5,807 C266.659,807.693 270.341,810.307 274.5,811 C276.628,811.355 296.372,811.355 298.5,811 C300.579,810.653 302.5,809.667 304.5,809 C313.293,806.069 314.917,804.055 322.5,799 C326.078,796.615 337.966,789.534 340.5,787 C342.2,785.3 342.8,782.7 344.5,781 C346.2,779.3 348.8,778.7 350.5,777 C356.232,771.268 353.247,771.507 356.5,765 C358.65,760.7 362.35,757.3 364.5,753 C365.443,751.114 365.331,748.754 366.5,747 C368.069,744.647 370.931,743.353 372.5,741 C373.669,739.246 373.833,737 374.5,735 C375.167,733 376.153,731.079 376.5,729 C377.8,721.2 375.762,724.573 374.5,717 C374.171,715.027 374.5,713 374.5,711 C374.5,709 374.171,706.973 374.5,705 C374.89,702.66 378.627,695.836 376.5,693 C375.235,691.313 372.5,691.667 370.5,691 C368.097,690.199 361.396,687.263 358.5,689 C356.439,690.237 355.833,693 354.5,695 C353.167,697 352.2,699.3 350.5,701 C348.478,703.022 341.753,707 338.5,707 C336.392,707 334.579,705.347 332.5,705 C330.527,704.671 328.5,705 326.5,705 C321.072,705 318.588,703.891 314.5,709 C311.866,712.292 313.134,717.708 310.5,721 C308.998,722.877 306.347,723.461 304.5,725 C302.327,726.811 301.03,729.735 298.5,731 C296.711,731.894 294.473,730.671 292.5,731 C290.421,731.347 288.579,732.653 286.5,733 C279.891,734.101 268.065,730.548 262.5,735 C260.623,736.502 259.833,739 258.5,741 C252.214,750.429 254.5,747.922 254.5,759 C254.5,761 255.529,763.285 254.5,765 C253.263,767.061 250.78,768.24 248.5,769 C247.305,769.398 231.695,769.398 230.5,769 C228.22,768.24 226.65,766.075 224.5,765 C222.614,764.057 220.5,763.667 218.5,763" fill="#668711"/>
    <path d="M1049.344,678.68 C1047.729,676.786 1046.531,674.438 1044.5,673 C1042.78,671.782 1040.254,672.169 1038.5,671 C1036.113,669.409 1029.554,662.162 1028.5,659 C1027.868,657.103 1028.829,654.973 1028.5,653 C1027.238,645.427 1025.2,648.8 1026.5,641 C1027.193,636.841 1029.807,633.159 1030.5,629 C1030.731,627.613 1030.83,611.99 1030.5,611 C1028.595,605.286 1025.071,604.048 1020.5,601 C1018.5,599.667 1016.78,597.76 1014.5,597 C1012.603,596.368 1010.5,597 1008.5,597 C1002.374,597 994.795,597.631 990.5,603 C989.183,604.646 989.443,607.114 988.5,609 C987.425,611.15 985.26,612.72 984.5,615 C983.868,616.897 985.132,619.103 984.5,621 C983.74,623.28 981.833,625 980.5,627 C978.167,630.5 975.5,636.167 970.5,637 C962.93,638.262 957.971,625.736 952.5,623 C950.711,622.106 948.5,623 946.5,623 C944.5,623 942.473,622.671 940.5,623 C938.42,623.347 936.5,624.333 934.5,625 C925.707,627.931 924.083,629.945 916.5,635 C914.5,636.333 912.002,637.123 910.5,639 C909.183,640.646 909.817,643.354 908.5,645 C906.998,646.877 904.002,647.123 902.5,649 C889.487,665.266 913.36,644.14 896.5,661 C894.8,662.7 892.002,663.123 890.5,665 C889.183,666.646 889.443,669.114 888.5,671 C887.425,673.15 885.575,674.85 884.5,677 C883.557,678.886 882.847,680.92 882.5,683 C882.154,685.078 882.154,698.922 882.5,701 C883.151,704.904 885.736,710.236 888.5,713 C891.465,715.965 902.172,722.279 906.5,723 C908.473,723.329 910.527,722.671 912.5,723 C914.579,723.347 916.42,724.653 918.5,725 C920.473,725.329 922.527,724.671 924.5,725 C926.579,725.347 928.42,726.653 930.5,727 C932.473,727.329 934.527,726.671 936.5,727 C938.579,727.347 940.42,728.653 942.5,729 C946.446,729.658 950.554,728.342 954.5,729 C956.579,729.347 958.42,730.653 960.5,731 C962.473,731.329 964.527,730.671 966.5,731 C968.579,731.347 970.42,732.653 972.5,733 C976.515,733.669 991.467,733 996.5,733 C1005.24,733 1005.971,733.843 1014.5,731 C1016.5,730.333 1018.614,729.943 1020.5,729 C1022.65,727.925 1024.5,726.333 1026.5,725 C1028.5,723.667 1030.8,722.7 1032.5,721 C1034.2,719.3 1035.167,717 1036.5,715 C1037.833,713 1039.425,711.15 1040.5,709 C1042.643,704.714 1044.887,695.838 1046.5,691 C1047.167,689 1048.153,687.079 1048.5,685 C1048.829,683.027 1048.5,681 1048.5,679 C1048.5,677 1049.394,674.789 1048.5,673 C1047.235,670.47 1044.5,669 1042.5,667" fill="#A5DC18"/>
    <path d="M971.281,718.197 C970.984,716.791 971.457,714.942 970.39,713.979 C968.825,712.566 966.39,712.645 964.39,711.979 C962.39,711.312 960.47,710.325 958.39,709.979 C956.417,709.65 954.39,709.979 952.39,709.979 C946.609,709.979 926.641,710.687 922.39,709.979 C920.311,709.632 918.39,708.645 916.39,707.979 C914.39,707.312 912.036,707.296 910.39,705.979 C909.805,705.51 903.13,695.869 904.39,693.979 C905.5,692.315 908.39,693.979 910.39,693.979 C916.39,693.979 922.39,693.979 928.39,693.979 C930.39,693.979 932.675,695.008 934.39,693.979 C939.097,691.154 939.555,685.935 936.39,681.979 C934.889,680.102 932.09,679.678 930.39,677.979 C928.69,676.279 927.723,673.979 926.39,671.979 C925.057,669.979 923.465,668.129 922.39,665.979 C921.447,664.093 919.607,661.936 920.39,659.979 C922.434,654.869 928.663,655.979 932.39,655.979 C934.39,655.979 936.601,655.084 938.39,655.979 C940.92,657.244 942.217,660.168 944.39,661.979 C947.845,664.858 951.88,667.227 956.39,667.979 C972.666,670.691 961.23,650.839 978.39,647.979 C980.363,647.65 982.493,647.346 984.39,647.979 C993.602,651.049 990.307,657.895 996.39,663.979 C998.09,665.678 1000.39,666.645 1002.39,667.979 C1009.978,673.037 1011.278,673.979 1020.39,673.979 C1022.39,673.979 1024.493,674.611 1026.39,673.979 C1028.67,673.219 1030.24,671.054 1032.39,669.979 C1034.276,669.036 1036.505,668.921 1038.39,667.979 C1042.657,665.845 1046.79,662.779 1048.39,657.979 C1051.016,650.1 1043.719,645.531 1038.39,641.979 C1036.39,640.645 1034.54,639.054 1032.39,637.979 C1031.35,637.459 1020.668,634.257 1020.39,633.979 C1017.758,631.346 1018.39,625.092 1018.39,621.979 C1018.39,618.241 1017.758,613.269 1020.39,609.979 C1021.892,608.102 1024.39,607.312 1026.39,605.979 C1030.997,602.907 1032.87,600.899 1038.39,599.979 C1040.468,599.632 1054.312,599.632 1056.39,599.979 C1058.47,600.325 1060.505,601.036 1062.39,601.979 C1066.69,604.129 1070.39,607.312 1074.39,609.979 C1076.39,611.312 1078.69,612.279 1080.39,613.979 C1082.838,616.427 1088.39,628.565 1088.39,631.979 C1088.39,634.087 1086.737,635.899 1086.39,637.979 C1086.061,639.951 1086.39,641.979 1086.39,643.979 C1086.39,645.979 1085.361,648.264 1086.39,649.979 C1092.379,659.961 1106.39,646.595 1106.39,659.979 C1106.39,664.195 1103.083,667.82 1102.39,671.979 C1101.733,675.924 1102.39,679.979 1102.39,683.979 C1102.39,691.979 1102.39,699.979 1102.39,707.979 C1102.39,709.979 1102.39,711.979 1102.39,713.979 C1102.39,715.979 1100.976,718.564 1102.39,719.979 C1103.812,721.401 1113.54,719.112 1114.39,717.979 C1115.59,716.379 1114.061,713.951 1114.39,711.979 C1114.737,709.899 1115.724,707.979 1116.39,705.979 C1118.396,699.96 1120.316,691.979 1128.39,691.979 C1130.498,691.979 1132.744,692.662 1134.39,693.979 C1137.048,696.105 1139.833,702.634 1140.39,705.979 C1141.793,714.395 1138.279,709.757 1142.39,717.979 C1147.014,727.226 1153.089,726.027 1158.39,733.979 C1159.56,735.733 1159.724,737.979 1160.39,739.979 C1161.057,741.979 1162.044,743.899 1162.39,745.979 C1162.719,747.951 1162.39,749.979 1162.39,751.979 C1162.39,753.979 1163.419,756.264 1162.39,757.979 C1161.153,760.04 1158.09,760.279 1156.39,761.979 C1154.69,763.678 1154.267,766.477 1152.39,767.979 C1150.744,769.296 1148.276,769.036 1146.39,769.979 C1144.24,771.054 1142.54,772.904 1140.39,773.979 C1137.931,775.208 1125.061,779.534 1122.39,779.979 C1120.417,780.307 1118.363,779.65 1116.39,779.979 C1114.311,780.325 1112.47,781.632 1110.39,781.979 C1108.417,782.307 1106.39,781.979 1104.39,781.979 C1102.39,781.979 1100.363,782.307 1098.39,781.979 C1093.115,781.099 1084.469,777.378 1080.39,773.979 C1078.217,772.168 1075.959,770.332 1074.39,767.979 C1067.884,758.219 1077.831,765.42 1068.39,755.979 C1066.69,754.279 1064.237,753.517 1062.39,751.979 C1060.217,750.168 1058.563,747.789 1056.39,745.979 C1053.418,743.502 1041.794,735.681 1038.39,733.979 C1036.505,733.036 1034.39,732.645 1032.39,731.979 C1030.39,731.312 1028.47,730.325 1026.39,729.979 C1024.417,729.65 1022.363,730.307 1020.39,729.979 C1016.231,729.285 1012.549,726.672 1008.39,725.979 C1006.417,725.65 1004.287,726.611 1002.39,725.979 C1000.11,725.219 998.54,723.054 996.39,721.979 C994.505,721.036 992.39,720.645 990.39,719.979 C988.39,719.312 986.47,718.325 984.39,717.979 C982.417,717.65 980.363,718.307 978.39,717.979 C974.231,717.285 970.39,715.312 966.39,713.979" fill="#85A91B"/>
    <path d="M1096.32,802.758 C1094.38,801.505 1092.44,800.253 1090.5,799 C1088.5,797 1086.853,794.569 1084.5,793 C1082.746,791.831 1080.386,791.943 1078.5,791 C1076.35,789.925 1074.78,787.76 1072.5,787 C1070.603,786.368 1068.473,787.329 1066.5,787 C1064.421,786.653 1062.579,785.347 1060.5,785 C1058.527,784.671 1056.473,785.329 1054.5,785 C1052.199,784.617 1032.667,778.083 1030.5,777 C1024.1,773.8 1018.9,768.2 1012.5,765 C1010.614,764.057 1008.386,763.943 1006.5,763 C1004.35,761.925 1002.65,760.075 1000.5,759 C998.614,758.057 996.386,757.943 994.5,757 C992.35,755.925 990.65,754.075 988.5,753 C983.669,750.585 980.321,751.776 976.5,747 C975.183,745.354 975.167,743 974.5,741 C970.112,727.838 970.5,730.791 970.5,717 C970.5,715 970.5,713 970.5,711 C970.5,709 969.868,706.897 970.5,705 C971.26,702.72 973.167,701 974.5,699 C975.833,697 976.8,694.7 978.5,693 C984.773,686.727 994.637,685.069 1002.5,689 C1004.65,690.075 1006.5,691.667 1008.5,693 C1010.589,694.393 1017.188,699.552 1020.5,699 C1027.321,697.863 1031.679,686.137 1038.5,685 C1040.579,684.653 1043.235,685.313 1044.5,687 C1045.7,688.6 1044.5,691 1044.5,693 C1044.5,697 1044.5,701 1044.5,705 C1044.5,712.02 1044.431,718.31 1052.5,721 C1054.835,721.778 1062.688,720.812 1064.5,719 C1066.731,716.769 1067.692,700.192 1076.5,709 C1077.991,710.491 1077.833,713 1078.5,715 C1079.167,717 1079.833,719 1080.5,721 C1081.167,723 1081.833,725 1082.5,727 C1083.167,729 1083.183,731.354 1084.5,733 C1086.002,734.877 1088.5,735.667 1090.5,737 C1092.5,738.333 1094.35,739.925 1096.5,741 C1100.858,743.179 1109.759,743.79 1114.5,743 C1116.579,742.653 1118.421,741.347 1120.5,741 C1128.756,739.624 1139.718,744.653 1142.5,753 C1143.132,754.897 1142.5,757 1142.5,759 C1142.5,761 1142.5,763 1142.5,765 C1142.5,767 1143.132,769.103 1142.5,771 C1141.74,773.28 1139.833,775 1138.5,777 C1137.167,779 1136.2,781.3 1134.5,783 C1132.8,784.7 1130.2,785.3 1128.5,787 C1126.8,788.7 1126.2,791.3 1124.5,793 C1122.8,794.7 1120.5,795.667 1118.5,797 C1116.5,798.333 1114.65,799.925 1112.5,801 C1110.614,801.943 1108.5,802.333 1106.5,803 C1104.5,803.667 1102.579,805.347 1100.5,805 C1094.114,803.936 1094.06,799.68 1092.5,795" fill="#6B930F"/>
    <path d="M981.484,746.828 C971.828,747.135 962.161,747 952.5,747 C950.5,747 948.289,747.894 946.5,747 C943.97,745.735 941.765,743.53 940.5,741 C940.301,740.601 940.687,730.122 940.5,729 C939.695,724.168 936.767,722.2 938.5,717 C939.26,714.72 941.425,713.15 942.5,711 C943.443,709.114 943.183,706.646 944.5,705 C946.002,703.123 948.653,702.539 950.5,701 C952.673,699.189 954.147,696.569 956.5,695 C960.065,692.623 970.355,692.309 974.5,693 C977.844,693.557 984.374,696.342 986.5,699 C987.817,700.646 987.833,703 988.5,705 C989.833,709 991.807,712.841 992.5,717 C992.829,718.973 992.5,721 992.5,723 C992.5,729.922 991.776,735.724 986.5,741 C982.623,744.877 979.38,745.373 974.5,747" fill="#537206"/>
    <path d="M1009.746,776.013 C1002.197,781.28 1001.601,782.287 1001.601,791.154 C1001.601,793.154 1000.198,795.74 1001.601,797.154 C1007.81,803.414 1007.603,791.188 1013.504,795.154 C1017.003,797.505 1008.222,809.829 1011.52,813.154 C1012.923,814.568 1015.515,812.825 1017.472,813.154 C1023.875,814.23 1023.75,818.244 1029.376,811.154 C1030.682,809.508 1029.881,806.645 1031.36,805.154 C1032.839,803.663 1035.328,803.821 1037.312,803.154 C1039.296,802.487 1041.201,801.501 1043.264,801.154 C1048.585,800.26 1051.739,803.893 1053.183,795.154 C1053.839,791.19 1047.028,783.768 1049.215,777.154 C1050.508,773.246 1056.325,770.433 1053.183,765.154 C1048.714,757.645 1041.073,763.788 1035.328,759.154 C1033.466,757.652 1032.886,755 1031.36,753.154 C1029.235,750.583 1023.058,744.364 1019.456,743.154 C1005.172,738.354 1010.614,760.637 1009.536,767.154 C1006.925,782.949 1007.552,763.554 1007.552,779.154" fill="#5F730E"/>
    <path d="M1065,801.352 C1060.908,799.213 1056.826,797.651 1054.5,793 C1053.606,791.211 1054.5,789 1054.5,787 C1054.5,782.422 1053.391,778.066 1058.5,775 C1073.451,766.029 1055.389,785.088 1070.5,773 C1072.377,771.498 1072.8,768.7 1074.5,767 C1076.522,764.978 1083.247,761 1086.5,761 C1096.959,761 1095.598,771.372 1098.5,775 C1100.002,776.877 1102.22,778.24 1104.5,779 C1106.397,779.632 1108.5,779 1110.5,779 C1112.5,779 1114.527,779.329 1116.5,779 C1118.579,778.653 1120.42,777.347 1122.5,777 C1124.473,776.671 1126.527,777.329 1128.5,777 C1130.579,776.653 1132.543,774.217 1134.5,775 C1136.732,775.893 1137.74,778.72 1138.5,781 C1141.355,789.566 1132.269,793.346 1128.5,799 C1122.53,807.955 1134.421,816.465 1130.5,823 C1127.114,828.644 1116.909,827.488 1112.5,833 C1106.059,841.052 1115.866,837.507 1106.5,845 C1104.679,846.457 1090.801,850.38 1088.5,849 C1086.439,847.763 1085.575,845.15 1084.5,843 C1081.322,836.644 1083.589,831.534 1082.5,825 C1082.153,822.921 1080.847,821.08 1080.5,819 C1080.1,816.602 1080.979,807.479 1080.5,807 C1079.086,805.586 1076.473,807.329 1074.5,807 C1072.42,806.653 1070.5,805.667 1068.5,805" fill="#537708"/>
  </g>
  <defs>
    <linearGradient id="Gradient_1" gradientUnits="userSpaceOnUse" x1="376.862" y1="797.367" x2="397.93" y2="797.367">
      <stop offset="0" stop-color="#73CAFC"/>
      <stop offset="0.503" stop-color="#CDEDFC" stop-opacity="0.955"/>
      <stop offset="0.991" stop-color="#7CC8FE"/>
    </linearGradient>
    <linearGradient id="Gradient_2" gradientUnits="userSpaceOnUse" x1="335.038" y1="863.899" x2="403.465" y2="863.899">
      <stop offset="0" stop-color="#73CAFC"/>
      <stop offset="0.503" stop-color="#CDEDFC" stop-opacity="0.955"/>
      <stop offset="0.991" stop-color="#7CC8FE"/>
    </linearGradient>
    <linearGradient id="Gradient_3" gradientUnits="userSpaceOnUse" x1="334.494" y1="946.163" x2="355.79" y2="946.163">
      <stop offset="0" stop-color="#73CAFC"/>
      <stop offset="0.503" stop-color="#CDEDFC" stop-opacity="0.955"/>
      <stop offset="0.991" stop-color="#7CC8FE"/>
    </linearGradient>
    <linearGradient id="Gradient_4" gradientUnits="userSpaceOnUse" x1="376.756" y1="915.463" x2="398.459" y2="915.463">
      <stop offset="0" stop-color="#73CAFC"/>
      <stop offset="0.503" stop-color="#CDEDFC" stop-opacity="0.955"/>
      <stop offset="0.991" stop-color="#7CC8FE"/>
    </linearGradient>
    <linearGradient id="Gradient_5" gradientUnits="userSpaceOnUse" x1="456.689" y1="822.044" x2="510.462" y2="822.044">
      <stop offset="0" stop-color="#73CAFC"/>
      <stop offset="0.503" stop-color="#CDEDFC" stop-opacity="0.955"/>
      <stop offset="0.991" stop-color="#7CC8FE"/>
    </linearGradient>
    <linearGradient id="Gradient_6" gradientUnits="userSpaceOnUse" x1="455.737" y1="876.562" x2="474.683" y2="876.562">
      <stop offset="0" stop-color="#73CAFC"/>
      <stop offset="0.503" stop-color="#CDEDFC" stop-opacity="0.955"/>
      <stop offset="0.991" stop-color="#7CC8FE"/>
    </linearGradient>
    <linearGradient id="Gradient_7" gradientUnits="userSpaceOnUse" x1="493.475" y1="856.556" x2="512.534" y2="856.556">
      <stop offset="0" stop-color="#73CAFC"/>
      <stop offset="0.503" stop-color="#CDEDFC" stop-opacity="0.955"/>
      <stop offset="0.991" stop-color="#7CC8FE"/>
    </linearGradient>
    <linearGradient id="Gradient_8" gradientUnits="userSpaceOnUse" x1="533.373" y1="864.553" x2="680.971" y2="864.553">
      <stop offset="0" stop-color="#73CAFC"/>
      <stop offset="0.503" stop-color="#CDEDFC" stop-opacity="0.955"/>
      <stop offset="0.991" stop-color="#7CC8FE"/>
    </linearGradient>
    <linearGradient id="Gradient_9" gradientUnits="userSpaceOnUse" x1="534.424" y1="830.537" x2="558.895" y2="830.537">
      <stop offset="0" stop-color="#73CAFC"/>
      <stop offset="0.503" stop-color="#CDEDFC" stop-opacity="0.955"/>
      <stop offset="0.991" stop-color="#7CC8FE"/>
    </linearGradient>
    <linearGradient id="Gradient_10" gradientUnits="userSpaceOnUse" x1="533.255" y1="821.499" x2="564.51" y2="821.499">
      <stop offset="0" stop-color="#73CAFC"/>
      <stop offset="0.503" stop-color="#CDEDFC" stop-opacity="0.955"/>
      <stop offset="0.991" stop-color="#7CC8FE"/>
    </linearGradient>
    <linearGradient id="Gradient_11" gradientUnits="userSpaceOnUse" x1="542.86" y1="809.642" x2="564.259" y2="809.642">
      <stop offset="0" stop-color="#73CAFC"/>
      <stop offset="0.503" stop-color="#CDEDFC" stop-opacity="0.955"/>
      <stop offset="0.991" stop-color="#7CC8FE"/>
    </linearGradient>
    <linearGradient id="Gradient_12" gradientUnits="userSpaceOnUse" x1="552.192" y1="790.628" x2="577.174" y2="790.628">
      <stop offset="0" stop-color="#73CAFC"/>
      <stop offset="0.503" stop-color="#CDEDFC" stop-opacity="0.955"/>
      <stop offset="0.991" stop-color="#7CC8FE"/>
    </linearGradient>
    <linearGradient id="Gradient_13" gradientUnits="userSpaceOnUse" x1="494.881" y1="780.984" x2="518.05" y2="780.984">
      <stop offset="0" stop-color="#73CAFC"/>
      <stop offset="0.503" stop-color="#CDEDFC" stop-opacity="0.955"/>
      <stop offset="0.991" stop-color="#7CC8FE"/>
    </linearGradient>
    <linearGradient id="Gradient_14" gradientUnits="userSpaceOnUse" x1="719.012" y1="855.97" x2="1069.602" y2="855.97">
      <stop offset="0" stop-color="#73CAFC"/>
      <stop offset="0.503" stop-color="#CDEDFC" stop-opacity="0.955"/>
      <stop offset="0.991" stop-color="#7CC8FE"/>
    </linearGradient>
    <linearGradient id="Gradient_15" gradientUnits="userSpaceOnUse" x1="903.251" y1="780.21" x2="929.348" y2="780.21">
      <stop offset="0" stop-color="#73CAFC"/>
      <stop offset="0.503" stop-color="#CDEDFC" stop-opacity="0.955"/>
      <stop offset="0.991" stop-color="#7CC8FE"/>
    </linearGradient>
    <linearGradient id="Gradient_16" gradientUnits="userSpaceOnUse" x1="826.813" y1="780.622" x2="850.898" y2="780.622">
      <stop offset="0" stop-color="#73CAFC"/>
      <stop offset="0.503" stop-color="#CDEDFC" stop-opacity="0.955"/>
      <stop offset="0.991" stop-color="#7CC8FE"/>
    </linearGradient>
    <linearGradient id="Gradient_17" gradientUnits="userSpaceOnUse" x1="949.067" y1="944.651" x2="973.047" y2="944.651">
      <stop offset="0" stop-color="#73CAFC"/>
      <stop offset="0.503" stop-color="#CDEDFC" stop-opacity="0.955"/>
      <stop offset="0.991" stop-color="#7CC8FE"/>
    </linearGradient>
    <linearGradient id="Gradient_18" gradientUnits="userSpaceOnUse" x1="951.905" y1="961.541" x2="976.711" y2="961.541">
      <stop offset="0" stop-color="#73CAFC"/>
      <stop offset="0.503" stop-color="#CDEDFC" stop-opacity="0.955"/>
      <stop offset="0.991" stop-color="#7CC8FE"/>
    </linearGradient>
    <linearGradient id="Gradient_19" gradientUnits="userSpaceOnUse" x1="829.773" y1="921.758" x2="919.704" y2="921.758">
      <stop offset="0" stop-color="#73CAFC"/>
      <stop offset="0.503" stop-color="#CDEDFC" stop-opacity="0.955"/>
      <stop offset="0.991" stop-color="#7CC8FE"/>
    </linearGradient>
    <linearGradient id="Gradient_20" gradientUnits="userSpaceOnUse" x1="853.28" y1="941.338" x2="919.003" y2="941.338">
      <stop offset="0" stop-color="#73CAFC"/>
      <stop offset="0.503" stop-color="#CDEDFC" stop-opacity="0.955"/>
      <stop offset="0.991" stop-color="#7CC8FE"/>
    </linearGradient>
  </defs>
  </svg>